<svg id="Capa_1" enable-background="new 0 0 512 512" height="512" viewBox="0 0 512 512" width="512" xmlns="http://www.w3.org/2000/svg"><path d="m437.02 74.98c-48.353-48.351-112.64-74.98-181.02-74.98s-132.667 26.629-181.02 74.98c-48.351 48.353-74.98 112.64-74.98 181.02s26.629 132.667 74.98 181.02c48.353 48.351 112.64 74.98 181.02 74.98s132.667-26.629 181.02-74.98c48.351-48.353 74.98-112.64 74.98-181.02s-26.629-132.667-74.98-181.02zm-90.645 75.645c33.188 0 60.188 27 60.188 60.188h-30c0-16.646-13.542-30.188-30.188-30.188s-30.188 13.542-30.188 30.188h-30c.001-33.188 27.001-60.188 60.188-60.188zm-180.75 0c33.188 0 60.188 27 60.188 60.188h-30c0-16.646-13.542-30.188-30.188-30.188s-30.188 13.542-30.188 30.188h-30c.001-33.188 27.001-60.188 60.188-60.188zm90.375 271c-65.862 0-125.462-39.004-151.836-99.368l27.49-12.012c21.6 49.436 70.408 81.379 124.346 81.379 53.937 0 102.745-31.943 124.346-81.378l27.49 12.012c-26.375 60.363-85.974 99.367-151.836 99.367z"/></svg>