<?xml version="1.0" encoding="iso-8859-1"?>
<!-- Generator: Adobe Illustrator 19.0.0, SVG Export Plug-In . SVG Version: 6.00 Build 0)  -->
<svg version="1.1" id="Capa_1" xmlns="http://www.w3.org/2000/svg" xmlns:xlink="http://www.w3.org/1999/xlink" x="0px" y="0px"
	 viewBox="0 0 512 512" style="enable-background:new 0 0 512 512;" xml:space="preserve">
<g>
	<g>
		<path d="M497,30h-15V15c0-8.291-6.709-15-15-15c-8.291,0-15,6.709-15,15v15h-15c-8.291,0-15,6.709-15,15s6.709,15,15,15h15v15
			c0,8.291,6.709,15,15,15c8.291,0,15-6.709,15-15V60h15c8.291,0,15-6.709,15-15S505.291,30,497,30z"/>
	</g>
</g>
<g>
	<g>
		<path d="M75,180H60v-15c0-8.291-6.709-15-15-15s-15,6.709-15,15v15H15c-8.291,0-15,6.709-15,15s6.709,15,15,15h15v15
			c0,8.291,6.709,15,15,15s15-6.709,15-15v-15h15c8.291,0,15-6.709,15-15S83.291,180,75,180z"/>
	</g>
</g>
<g>
	<g>
		<path d="M45,0C20.186,0,0,20.186,0,45c0,24.814,20.186,45,45,45s45-20.186,45-45C90,20.186,69.814,0,45,0z"/>
	</g>
</g>
<g>
	<g>
		<path d="M467,150c-24.814,0-45,20.186-45,45c0,24.814,20.186,45,45,45c24.814,0,45-20.186,45-45C512,170.186,491.814,150,467,150z
			"/>
	</g>
</g>
<g>
	<g>
		<path d="M316,407c-47.884,0-78.957-30-120-30c-28.433,0-52.456,12.964-52.69,13.096l-7.31,4.081V467c0,24.853,20.147,45,45,45h150
			c24.853,0,45-20.147,45-45v-73.358C364.95,398.603,342.431,407,316,407z M211,467c-16.538,0-30-13.462-30-30
			c0-16.538,13.462-30,30-30c16.538,0,30,13.462,30,30C241,453.538,227.538,467,211,467z M271,482c-8.284,0-15-6.716-15-15
			c0-8.286,6.716-15,15-15s15,6.714,15,15C286,475.284,279.284,482,271,482z M316,452c-8.284,0-15-6.716-15-15
			c0-8.286,6.716-15,15-15s15,6.714,15,15C331,445.284,324.284,452,316,452z"/>
	</g>
</g>
<g>
	<g>
		<path d="M391,270H121c-16.569,0-30,13.431-30,30c0,16.567,13.431,30,30,30h15v30.358c11.05-4.96,33.569-13.358,60-13.358
			c47.853,0,78.984,30,120,30c28.433,0,52.456-12.964,52.69-13.096l7.31-4.081V330h15c16.569,0,30-13.433,30-30
			C421,283.431,407.569,270,391,270z"/>
	</g>
</g>
<g>
	<g>
		<path d="M391,90c0-33.091-26.909-60-60-60c-4.713,0-9.421,0.58-14,1.675C303.391,12.576,281.184,0,256,0
			c-25.184,0-47.391,12.576-61,31.675C190.421,30.58,185.713,30,181,30c-33.091,0-60,26.909-60,60
			c0,10.626,2.895,20.894,8.123,29.945C123.975,128.848,121,139.105,121,150c0,16.025,6.24,31.084,17.578,42.422
			S164.975,210,181,210c3.995,0,7.932-0.39,11.765-1.148c3.384,8.99,7.859,20.982,11.647,31.148h103.173
			c3.792-10.179,8.275-22.185,11.651-31.148C323.068,209.61,327.003,210,331,210c16.025,0,31.084-6.24,42.422-17.578
			S391,166.025,391,150c0-10.831-3.005-21.066-8.163-29.976C388.094,110.955,391,100.657,391,90z"/>
	</g>
</g>
<g>
</g>
<g>
</g>
<g>
</g>
<g>
</g>
<g>
</g>
<g>
</g>
<g>
</g>
<g>
</g>
<g>
</g>
<g>
</g>
<g>
</g>
<g>
</g>
<g>
</g>
<g>
</g>
<g>
</g>
</svg>
