<svg height="512" viewBox="0 0 34 56" width="512" xmlns="http://www.w3.org/2000/svg"><g id="Page-1" fill="none" fill-rule="evenodd"><g id="056---Sailor" fill="rgb(0,0,0)" fill-rule="nonzero" transform="translate(0 -1)"><path id="Shape" d="m29.153 33.805-8.575 4.288c-.1925492.0964682-.425235.0588046-.5775198-.0934802s-.1899484-.3849706-.0934802-.5775198l2.711-5.422h2.69c1.3337127-.0014885 2.6495705.3065947 3.844.9.1754423.082233.2875805.2584244.2877946.4521825.0002141.1937582-.1115345.370197-.2867946.4528175z"/><path id="Shape" d="m22.312 46.577c.4071863.5305316.6357935 1.176443.653 1.845.0133571.1477043-.0395457.2937165-.1444146.3985854s-.2508811.1577717-.3985854.1444146c-.6683562-.0173962-1.3141133-.2455988-1.845-.652-.531572-.453425-.7143015-1.1956127-.454-1.844.065-.082.14-.156.2-.243.6586933-.3903083 1.503689-.2411914 1.989.351z"/><circle id="Oval" cx="17" cy="44" r="2"/><path id="Shape" d="m13.423 48.313c-.5308867.4064012-1.1766438.6346038-1.845.652-.1477043.0133571-.2937165-.0395457-.3985854-.1444146s-.1577717-.2508811-.1444146-.3985854c.0173962-.6683562.2455988-1.3141133.652-1.845.4854243-.5942123 1.3327107-.7435082 1.992-.351.058.087.133.16.2.243.2598368.6488075.0762827 1.3910745-.456 1.844z"/><path id="Shape" d="m13 29.3c1.1112212.9893655 2.5164912 1.5866052 4 1.7 1.4835265-.113322 2.8888189-.7105712 4-1.7v1.461l-3.553 7.105c-.0847806.1691575-.2577858.2759665-.447.2759665s-.3622194-.106809-.447-.2759665l-3.553-7.102z"/><path id="Shape" d="m17 1c1.705241-.05368339 3.3393543.68473205 4.426 2h-8.852c1.0866457-1.31526795 2.720759-2.05368339 4.426-2z"/><path id="Shape" d="m5.641 5h22.719c.1538949.00004251.2991966.07095176.3939222.19223953.0947255.12128778.1283204.27943986.0910778.42876047l-1.251 5c-.0555354.2226641-.2555148.3789366-.485.379h-20.219c-.22948523-.0000634-.42946458-.1563359-.485-.379l-1.249-5c-.03724258-.14932061-.00364772-.30747269.09107784-.42876047.09472555-.12128777.24002722-.19219702.39392216-.19223953z"/><path id="Shape" d="m9.009 18.977c-.00877238-.5045992-.39215967-.9235806-.894-.977-.68072609-1.0446592-1.06601499-2.2540862-1.115-3.5 0-.8.468-1.5 1-1.5h18c.532 0 1 .7 1 1.5-.048985 1.2459138-.4342739 2.4553408-1.115 3.5-.5003555.0532217-.8832368.4699371-.894.973-.0425897 1.9947701-.7424665 3.9196948-1.991 5.476-2.34 2.892-4.525 4.551-6 4.551s-3.66-1.658-6-4.549c-1.24812027-1.5557653-1.94797237-3.4799192-1.991-5.474z"/><path id="Shape" d="m11.382 32 2.711 5.422c.0964682.1925492.0588046.425235-.0934802.5775198s-.3849706.1899484-.5775198.0934802l-8.575-4.288c-.17249516-.0835432-.28205505-.2583387-.28205505-.45s.10955989-.3664568.28205505-.45c1.19442953-.5934053 2.51028732-.9014885 3.844-.9z"/><path id="Shape" d="m34 55.235c0 .9747826-.7902174 1.765-1.765 1.765h-2.735c-.2761424 0-.5-.2238576-.5-.5v-11.5c0-.5522847-.4477153-1-1-1s-1 .4477153-1 1v11.5c0 .2761424-.2238576.5-.5.5h-19c-.27614237 0-.5-.2238576-.5-.5v-11.5c0-.5522847-.44771525-1-1-1s-1 .4477153-1 1v11.5c0 .2761424-.22385763.5-.5.5h-2.73c-.97640407-.0027466-1.76725342-.7935959-1.77-1.77v-14.553c.00065594-2.0540464.73553402-4.0402033 2.072-5.6.15123858-.1748841.40265854-.2232659.608-.117l11.211 5.606c.1380783.0710612.2353008.2022453.2631146.3550253.0278138.1527799-.0169388.3098108-.1211146.4249747-.663455.7247653-1.0319171 1.6714237-1.033 2.654v.007c-1.0268117.0075499-2.0083898.4234972-2.728 1.156-1.554 1.554-1.274 4.576-1.237 4.915.05076316.466685.41931502.8352368.886.886.2967101.0299372.5947862.0442902.893.043 1.4531658.0881124 2.8870495-.3682205 4.022-1.28.5243971-.5225741.8937289-1.1802409 1.067-1.9.7126725.2293271 1.4793275.2293271 2.192 0 .1732711.7197591.5426029 1.3774259 1.067 1.9 1.1353036.9118454 2.5695207 1.368171 4.023 1.28.2978806.0012699.5956228-.0130831.892-.043.466685-.0507632.8352368-.419315.886-.886.037-.339.317-3.361-1.237-4.915-.7190587-.7321068-1.6998605-1.1480301-2.726-1.156v-.007c-.0005837-.9832665-.3690797-1.9307255-1.033-2.656-.1041758-.1151639-.1489284-.2721948-.1211146-.4249747.0278138-.15278.1250363-.2839641.2631146-.3550253l11.211-5.606c.2053415-.1062659.4567614-.0578841.608.117 1.3369135 1.5603192 2.0718212 3.5472656 2.072 5.602z"/></g></g></svg>