<svg id="Layer_1" enable-background="new 0 0 64 64" height="512" viewBox="0 0 64 64" width="512" xmlns="http://www.w3.org/2000/svg"><path d="m37.5 40.8 12.8-4.3c-.6-.4-1.3-.8-2-1.1l-.6-.3-11.3 4z"/><path d="m25.2 46.1c-.1.2-.2.4-.2.6v2.3h2.5c.4 0 .8-.3 1-.7l2.3-7.5c-.5-.2-.9-.4-1.3-.7z"/><path d="m28 37c0-.9.3-1.8.9-2.5-.5-.1-1-.3-1.4-.5l-1-.5c-.9-.4-1.7-.9-2.4-1.5l-5 2 8.9 3.2s0-.1 0-.2z"/><path d="m37.5 33.6-1 .5c-.5.2-.9.4-1.4.5.6.7.9 1.6.9 2.5v.2l8.9-3.2-5-2c-.7.6-1.5 1.1-2.4 1.5z"/><path d="m36.5 49h2.5v-2.4c0-.2-.1-.4-.2-.6l-4.3-6c-.4.3-.8.5-1.3.7l2.3 7.5c.2.5.5.8 1 .8z"/><path d="m38.4 4.8c-.1-.4-.5-.8-1-.8h-10.8c-.5 0-.9.3-1 .8l-.3 1.2h13.4z"/><path d="m28.2 12.7c2.5-.5 5-.5 7.5 0l6.4 1.2.6-4.7c.1-.5-.3-1-.9-1.1h-.1-19.4c-.6 0-1 .4-1 1v.1l.6 4.7z"/><path d="m27.6 39.2-11.3-4-.6.3c-.7.3-1.3.7-2 1.1l12.8 4.3z"/><path d="m51.9 38.1-13.2 4.4 1.7 2.4c.4.5.6 1.1.6 1.7v4.4h-4.5c-1.3 0-2.5-.9-2.9-2.1l-1.6-5.4-1.6 5.4c-.4 1.2-1.6 2.1-2.9 2.1h-4.5v-4.4c0-.6.2-1.2.6-1.7l1.7-2.4-13.2-4.4c-1.3 1.6-2.1 3.6-2.1 5.7v16.2h8v-11h2v11h24v-11h2v11h8v-16.2c0-2.1-.7-4.1-2.1-5.7z"/><path d="m20.7 23.1 1.3.6c.1 3.5 2.1 6.6 5.3 8.1l1 .5c2.4 1.1 5.1 1.1 7.4 0l1-.5c3.2-1.4 5.2-4.6 5.3-8.1l1.3-.6c.4-.2.7-.7.7-1.2v-1.6c0-.7-.6-1.3-1.3-1.3-.1 0-.7.1-.7.1v-3.3l-6.6-1.2c-2.2-.4-4.6-.4-6.8 0l-6.6 1.2v3.3l-.4-.1c-.7-.2-1.4.3-1.6 1v.3 1.6c0 .5.3.9.7 1.2z"/><circle cx="32" cy="36.956" r="2.009"/></svg>