<svg id="Capa_1" enable-background="new 0 0 511.905 511.905" height="512" viewBox="0 0 511.905 511.905" width="512" xmlns="http://www.w3.org/2000/svg"><g><path d="m315.544 368.519v58.048h97.256l-18.492-58.048z"/><path d="m196.361 426.567v-58.048h-78.764l-18.492 58.048z"/><path d="m384.751 338.519-38.515-120.899 38.601-199.773c1.114-5.767-1.24-11.654-6.024-15.062-4.785-3.41-11.118-3.712-16.204-.774l-85.904 49.596c-1.988 1.147-3.686 2.736-4.963 4.644l-103.083 153.932c-.785 1.172-1.401 2.449-1.829 3.793l-39.675 124.543z"/><path d="m426.263 456.567h-340.621c-27.094 0-51.324 15.132-63.234 39.491-2.358 4.823-.37 8.938.595 10.482 1.007 1.613 3.961 5.365 9.63 5.365h446.641c5.669 0 8.623-3.751 9.63-5.365.964-1.545 2.953-5.66.595-10.483-11.912-24.358-36.142-39.49-63.236-39.49z"/><path d="m226.361 368.519h59.184v58.047h-59.184z"/></g></svg>