<svg id="Capa_1" enable-background="new 0 0 512 512" height="512" viewBox="0 0 512 512" width="512" xmlns="http://www.w3.org/2000/svg"><g><path d="m133.3 289.654c11.915 0 21.608-9.693 21.608-21.608v-25.129c0-11.915-9.693-21.609-21.608-21.609s-21.609 9.694-21.609 21.609v25.129c-.001 11.914 9.694 21.608 21.609 21.608z"/><path d="m179.071 343.438c0-12.754-10.376-23.13-23.13-23.13h-45.284c-12.754 0-23.13 10.376-23.13 23.13v27.562h91.544z"/><path d="m364 312.105c15.039 0 27.274-12.235 27.274-27.275 0-6.892-10.586-24.923-27.248-44.062-14.545 16.793-27.301 35.802-27.301 44.062.001 15.04 12.236 27.275 27.275 27.275z"/><g><path d="m486.915 123.697h-164.717l-21.122 16.68v59.188c0 8.284-6.716 15-15 15h-60.152c-8.284 0-15-6.716-15-15v-59.413l-20.837-16.454h-165.002c-13.854-.001-25.085 11.23-25.085 25.085v338.132c0 13.854 11.231 25.085 25.085 25.085h461.829c13.855 0 25.086-11.231 25.086-25.085v-338.132c0-13.855-11.231-25.086-25.085-25.086zm-155.902 110.108c10.991-14.163 21.858-25.2 22.315-25.663 2.818-2.853 6.661-4.459 10.672-4.459s7.853 1.606 10.672 4.459c.457.463 11.324 11.5 22.315 25.663 16.343 21.059 24.287 37.749 24.287 51.025 0 31.581-25.693 57.275-57.274 57.275s-57.274-25.693-57.274-57.275c0-13.276 7.944-29.966 24.287-51.025zm-47.632 138.589h163.239c8.284 0 15 6.375 15 14.238 0 7.864-6.716 14.238-15 14.238h-163.239c-8.284 0-15-6.375-15-14.238s6.716-14.238 15-14.238zm-225.854 13.606v-42.562c0-21.666 13.043-40.333 31.683-48.592-4.769-7.816-7.52-16.993-7.52-26.8v-25.129c0-28.457 23.151-51.609 51.609-51.609 28.457 0 51.608 23.152 51.608 51.609v25.129c0 9.807-2.751 18.984-7.52 26.8 18.641 8.26 31.684 26.926 31.684 48.592v42.562c0 8.284-6.716 15-15 15h-121.544c-8.284 0-15-6.716-15-15zm389.379 71.825h-364.239c-8.284 0-15-6.375-15-14.238 0-7.864 6.716-14.238 15-14.238h364.239c8.284 0 15 6.375 15 14.238s-6.716 14.238-15 14.238z"/><path d="m240.924 153.697h30.152v30.868h-30.152z"/><path d="m119.841 30h272.604l-118.653 93.697h48.407l122.741-96.925c5.014-3.958 6.97-10.658 4.874-16.692-2.095-6.035-7.783-10.08-14.17-10.08h-359.002c-6.388 0-12.075 4.045-14.17 10.08-2.096 6.035-.14 12.734 4.874 16.692l122.741 96.925h48.407z"/></g></g></svg>