<svg height="448pt" viewBox="0 -60 448 448" width="448pt" xmlns="http://www.w3.org/2000/svg"><path d="m104 64v-16h-80v16zm0 0"/><path d="m80 24c0-4.417969-3.582031-8-8-8h-16c-4.417969 0-8 3.582031-8 8v8h32zm0 0"/><path d="m416 64v-16h-45.070312l9.597656 16zm0 0"/><path d="m96 112h71.769531c14.316407-14.300781 31.644531-25.234375 50.71875-32h-122.488281zm0 0"/><path d="m80 152v-72h-80v232c0 8.835938 7.164062 16 16 16h64c8.835938 0 16-7.164062 16-16v-140.6875l-13.65625-13.65625c-1.5-1.5-2.34375-3.535156-2.34375-5.65625zm0 0"/><path d="m323.472656 0h-118.945312l-38.398438 64h195.742188zm0 0"/><path d="m286.007812 122.800781c-47.058593-12.15625-95.058593 16.140625-107.210937 63.199219s16.144531 95.058594 63.203125 107.210938c47.0625 12.148437 95.058594-16.152344 107.207031-63.210938 5.9375-22.601562 2.605469-46.636719-9.265625-66.769531-11.867187-20.128907-31.28125-34.683594-53.933594-40.429688zm0 0"/><path d="m400 208c-.007812 40.140625-17.78125 78.21875-48.542969 104h72.542969c13.253906 0 24-10.746094 24-24v-160h-74.265625c17.058594 23.1875 26.257813 51.214844 26.265625 80zm0 0"/><path d="m424 80h-114.488281c19.074219 6.765625 36.402343 17.699219 50.71875 32h87.769531v-8c0-13.253906-10.746094-24-24-24zm0 0"/><path d="m264 88c-66.273438 0-120 53.726562-120 120s53.726562 120 120 120 120-53.726562 120-120c-.074219-66.242188-53.757812-119.925781-120-120zm52.800781 209.601562c-15.9375 9.445313-34.117187 14.433594-52.640625 14.445313-8.835937-.003906-17.632812-1.128906-26.183594-3.34375-48.039062-12.40625-80.625-57.023437-77.824218-106.558594 2.796875-49.535156 40.195312-90.199219 89.324218-97.117187 49.132813-6.921875 96.308594 21.824218 112.683594 68.660156 16.371094 46.835938-2.617187 98.714844-45.359375 123.914062zm0 0"/><path d="m128 208c.007812-28.785156 9.207031-56.8125 26.265625-80h-58.265625v20.6875l13.65625 13.65625c1.5 1.5 2.34375 3.535156 2.34375 5.65625v144h64.542969c-30.761719-25.78125-48.535157-63.859375-48.542969-104zm0 0"/></svg>