<svg id="_x33_0" enable-background="new 0 0 64 64" height="512" viewBox="0 0 64 64" width="512" xmlns="http://www.w3.org/2000/svg"><g><path d="m33 14h2v9h-2z"/><path d="m29 14h2v9h-2z"/><path d="m21 26c0 1.141.399 2.233 1.095 3.108l.31.037c.383-.456.836-.849 1.336-1.174-.471-.541-.741-1.24-.741-1.971 0-1.302.839-2.402 2-2.816v1.816h2v-6h-2v2.101c-2.279.465-4 2.485-4 4.899z"/><path d="m41.567 29.113.356-.029c.684-.871 1.077-1.953 1.077-3.084 0-2.414-1.721-4.434-4-4.899v-2.101h-2v6h2v-1.816c1.161.414 2 1.514 2 2.816 0 .731-.27 1.43-.742 1.971.489.318.932.7 1.309 1.142z"/><path d="m59.277 18.613 1.277-.852c.279-.185.446-.496.446-.831v-3.682c-.229.13-.437.301-.681.511-.645.553-1.447 1.241-2.984 1.241s-2.34-.688-2.985-1.241c-.533-.457-.885-.759-1.682-.759s-1.15.302-1.683.759c-.211.181-.443.375-.709.556l6.446 4.298c.759.506 1.797.506 2.555 0z"/><path d="m39 15v-8h-2-.001l.001 8z"/><path d="m49.683 12.241c.645-.553 1.448-1.241 2.985-1.241s2.339.688 2.984 1.241c.534.457.886.759 1.683.759.796 0 1.148-.302 1.682-.759.487-.418 1.066-.912 1.983-1.129v-6.042c0-.335-.167-.646-.445-.832l-1.277-.852c-.759-.506-1.796-.506-2.555 0l-7.723 5.149v2.465h-2v-2h-2v2h-2v-2h-2v4h7c.797 0 1.15-.302 1.683-.759z"/><path d="m25 5h2v10h-2z"/><path d="m6 13h17v-6h-2v2h-2v-2h-2v4h-2v-4h-2v2h-2v-2h-2v4h-2v-4h-1c-1.654 0-3 1.346-3 3s1.346 3 3 3z"/><path d="m10 31c3.86 0 7-3.14 7-7s-3.14-7-7-7-7 3.14-7 7 3.14 7 7 7zm0-10c1.654 0 3 1.346 3 3h-2c0-.551-.449-1-1-1z"/><path d="m21 46.816v-5.631c-1.161.414-2 1.514-2 2.816s.839 2.401 2 2.815z"/><path d="m43.001 39-.001-2h-22v2h22z"/><path d="m45 37v1.444c1.19-.694 2-1.97 2-3.444 0-2.206-1.794-4-4-4-.115 0-.226.021-.339.031.216.617.339 1.278.339 1.969h-2c0-2.206-1.794-4-4-4s-4 1.794-4 4v2h10c1.103 0 2 .897 2 2z"/><path d="m31 35v-2c0-2.206-1.794-4-4-4s-4 1.794-4 4h-2c0-.691.123-1.352.339-1.969-.113-.01-.224-.031-.339-.031-2.206 0-4 1.794-4 4 0 1.474.81 2.75 2 3.444v-1.444c0-1.103.897-2 2-2z"/><path d="m45 44c0-1.302-.839-2.402-2-2.816v5.631c1.161-.413 2-1.513 2-2.815z"/><path d="m57.93 50.297c.668-.56 1.07-1.393 1.07-2.297 0-1.654-1.346-3-3-3-1.34 0-2.464.889-2.848 2.103 2.013.336 3.734 1.529 4.778 3.194z"/><path d="m5 48c0 .904.402 1.737 1.07 2.297 1.042-1.662 2.759-2.855 4.767-3.193-.393-1.231-1.509-2.104-2.837-2.104-1.654 0-3 1.346-3 3z"/><path d="m58.976 53.53c.011.156.024.311.024.47 0 .392-.033.784-.097 1.166l-1.973-.332c.047-.273.07-.553.07-.834 0-2.757-2.243-5-5-5-.88 0-1.744.231-2.499.668l-1.002-1.73c.798-.462 1.682-.759 2.596-.878.237-1.236.936-2.3 1.904-3.033 0-.009.001-.018.001-.027 0-2.757-2.243-5-5-5-.198 0-.393.029-.588.052-.534.581-1.18 1.056-1.905 1.392.92.907 1.493 2.165 1.493 3.556 0 2.414-1.721 4.434-4 4.899v9.101c0 1.13-.391 2.162-1.026 3h15.026c2.206 0 4-1.794 4-4 0-1.469-.81-2.775-2.024-3.47zm-10.976 4.47c-1.105 0-2-.895-2-2s.895-2 2-2 2 .895 2 2-.895 2-2 2z"/><path d="m23 43h6v2h-6v2h4v2h-4v2h6v2h-6v2h4v2h-4v1c0 1.654 1.346 3 3 3h12c1.654 0 3-1.346 3-3v-17h-18zm13 1c1.105 0 2 .895 2 2s-.895 2-2 2-2-.895-2-2 .895-2 2-2zm-2 10c1.105 0 2 .895 2 2s-.895 2-2 2-2-.895-2-2 .895-2 2-2z"/><path d="m21 48.899c-2.279-.465-4-2.484-4-4.899 0-1.391.573-2.649 1.493-3.556-.725-.335-1.371-.81-1.905-1.392-.195-.023-.39-.052-.588-.052-2.757 0-5 2.243-5 5 0 .009.001.018.001.027.967.733 1.667 1.797 1.904 3.033.914.119 1.798.416 2.596.878l-1.002 1.73c-.755-.437-1.619-.668-2.499-.668-2.757 0-5 2.243-5 5 0 .281.023.561.069.834l-1.973.332c-.063-.382-.096-.774-.096-1.166 0-.159.013-.314.024-.47-1.214.695-2.024 2.001-2.024 3.47 0 2.206 1.794 4 4 4h15.026c-.635-.838-1.026-1.87-1.026-3zm-5 9.101c-1.105 0-2-.895-2-2s.895-2 2-2 2 .895 2 2-.895 2-2 2z"/><circle cx="58" cy="33" r="5"/><circle cx="48" cy="24" r="3"/></g></svg>