<svg id="Capa_1" enable-background="new 0 0 512 512" height="512" viewBox="0 0 512 512" width="512" xmlns="http://www.w3.org/2000/svg"><g><g><path d="m141.347 235.458c0 17.174 13.972 31.146 31.146 31.146h42.625c14.271 0 25.883-11.611 25.883-25.883h30c0 14.272 11.611 25.883 25.883 25.883h42.625c17.174 0 31.146-13.972 31.146-31.146v-44.262h-229.308z"/></g><path d="m97.731 413.17c-26.11 9.651-44.952 32.588-49.061 60.735l-5.562 38.095h153.876l-24.278-13.194c-35.316-19.192-61.297-49.983-74.975-85.636z"/><path d="m391.401 322.573-10.299-42.352c-10.921 10.155-25.541 16.383-41.594 16.383h-42.625c-16.128 0-30.673-6.876-40.883-17.84-10.21 10.964-24.755 17.84-40.883 17.84h-42.625c-16.053 0-30.673-6.228-41.594-16.383l-10.299 42.352c-14.389 59.168 12.929 120.799 66.432 149.874l68.969 37.481 68.97-37.481c53.503-29.075 80.82-90.706 66.431-149.874z"/><path d="m463.33 473.905c-4.109-28.147-22.952-51.084-49.061-60.735-13.678 35.653-39.659 66.444-74.975 85.636l-24.278 13.194h153.876z"/><path d="m438.24 131.196h-78.632l-19.17-49.694-56.593 4.47-2.362-29.907 88.425-6.984-101.711-49.081h-4.922l-59.737 43.512-46.506 87.684h-83.272v30h364.48z"/></g></svg>